<?xml version="1.0" standalone="no"?>
<!DOCTYPE svg PUBLIC "-//W3C//DTD SVG 20010904//EN"
 "http://www.w3.org/TR/2001/REC-SVG-20010904/DTD/svg10.dtd">
<svg version="1.0" xmlns="http://www.w3.org/2000/svg"
 width="1024.000000pt" height="1024.000000pt" viewBox="0 0 1024.000000 1024.000000"
 preserveAspectRatio="xMidYMid meet">
<metadata>
Created by potrace 1.14, written by Peter Selinger 2001-2017
</metadata>
<g transform="translate(0.000000,1024.000000) scale(0.100000,-0.100000)"
fill="#000000" stroke="none">
<path d="M4825 10059 c-755 -45 -1500 -268 -2156 -645 -1238 -710 -2104 -1911
-2388 -3309 -67 -333 -94 -616 -94 -985 0 -360 24 -609 89 -940 129 -655 369
-1238 740 -1795 837 -1259 2229 -2074 3734 -2185 193 -14 618 -12 800 5 833
75 1601 343 2300 802 997 656 1741 1688 2045 2838 120 453 165 803 165 1270 0
302 -10 466 -46 715 -137 954 -545 1837 -1187 2568 -48 54 -164 175 -260 268
-993 972 -2348 1477 -3742 1393z m685 -479 c377 -33 786 -124 1155 -258 527
-191 1072 -522 1464 -888 40 -38 80 -73 87 -77 27 -16 292 -307 390 -429 436
-541 741 -1182 888 -1869 69 -324 96 -585 96 -939 0 -492 -74 -943 -231 -1414
-479 -1436 -1658 -2532 -3126 -2906 -552 -141 -1134 -177 -1683 -104 -877 116
-1689 480 -2355 1057 -146 126 -387 372 -512 524 -774 933 -1139 2163 -998
3361 144 1224 780 2333 1759 3065 730 546 1564 842 2511 891 102 5 422 -3 555
-14z m2156 -306 c99 -47 111 -192 22 -256 -73 -52 -182 -24 -219 55 -24 55
-24 93 4 141 39 69 121 94 193 60z m-5475 -397 c67 -44 88 -135 47 -197 -37
-54 -73 -75 -128 -75 -77 0 -139 57 -147 136 -8 87 58 159 147 159 32 0 58 -7
81 -23z m-950 -6180 c122 -81 65 -272 -81 -272 -55 0 -91 21 -127 75 -63 91
12 220 127 220 32 0 58 -7 81 -23z m7899 -10 c135 -71 85 -277 -67 -277 -131
0 -199 142 -116 241 51 60 114 73 183 36z m-4795 -2056 c98 -55 99 -183 2
-255 -44 -33 -117 -28 -164 11 -97 77 -74 218 42 258 44 15 74 11 120 -14z"/>
<path d="M4630 8030 l0 -80 43 0 c39 0 45 -3 70 -42 15 -23 27 -47 27 -54 0
-12 41 -93 78 -154 12 -19 25 -42 29 -50 3 -8 15 -27 25 -42 15 -22 18 -46 18
-162 l0 -136 -55 0 -55 0 0 -84 0 -84 41 -7 c23 -4 113 -4 201 0 134 6 158 10
154 22 -3 8 -6 46 -6 84 l0 69 -45 0 -45 0 1 143 1 142 43 90 c23 50 46 97 49
105 3 8 15 29 26 45 11 17 22 37 25 45 22 58 30 65 78 68 l47 3 0 80 0 79
-160 0 -160 0 0 -80 0 -80 36 0 c34 0 35 -1 20 -22 -9 -12 -16 -31 -16 -40 0
-10 -11 -36 -25 -57 -13 -22 -27 -51 -31 -65 -10 -40 -20 -39 -37 2 -9 20 -21
44 -26 52 -6 8 -17 33 -26 55 -9 22 -21 48 -26 58 -8 15 -4 17 26 17 l35 0 0
80 0 80 -180 0 -180 0 0 -80z"/>
<path d="M4053 8083 l-63 -4 0 -76 0 -75 35 4 35 4 0 -56 c1 -30 3 -189 6
-352 l6 -298 -25 0 c-54 0 -57 -5 -57 -102 l0 -90 38 6 c20 3 78 11 127 16 50
6 97 13 106 16 17 5 29 61 29 135 0 35 -3 39 -25 39 -25 0 -25 0 -25 95 0 52
2 95 5 95 2 0 12 -16 21 -35 9 -19 20 -35 25 -35 5 0 9 -6 9 -14 0 -8 17 -36
38 -63 34 -42 53 -83 56 -118 1 -6 12 -25 26 -42 l25 -32 74 9 c41 6 75 11 76
12 2 2 5 38 7 81 l5 77 -39 0 c-28 0 -40 5 -44 18 -3 9 -10 24 -15 32 -5 8
-12 22 -16 30 -3 8 -19 30 -35 48 -15 18 -34 45 -42 60 -14 27 -13 30 20 73
19 24 45 56 58 71 13 14 27 36 31 47 4 15 15 21 36 21 l29 0 0 71 0 72 -31 -7
c-17 -3 -87 -6 -155 -6 l-124 0 0 -70 0 -70 56 0 56 0 -66 -80 c-36 -43 -66
-83 -66 -88 0 -5 -6 -15 -14 -21 -21 -18 -29 116 -20 380 l7 229 -59 -2 c-32
-1 -87 -3 -121 -5z"/>
<path d="M7040 7882 c0 -88 5 -102 39 -102 51 0 51 -1 49 -226 -2 -115 1 -266
6 -336 l8 -126 -39 9 c-21 5 -43 9 -49 9 -8 0 -12 -35 -13 -109 l-1 -109 53
-7 c28 -4 75 -13 102 -20 72 -20 175 -47 214 -56 l34 -8 -7 82 c-3 45 -6 96
-6 114 0 28 -3 32 -38 38 -20 3 -43 9 -49 13 -7 5 -15 50 -19 114 l-7 106 44
-10 c24 -5 75 -11 112 -13 59 -4 74 -1 118 23 52 28 60 41 90 141 32 104 -56
379 -127 397 -13 3 -24 10 -24 15 0 4 -17 16 -37 26 -21 9 -40 20 -43 24 -5 8
-273 63 -357 75 l-53 7 0 -71z m368 -173 c2 -5 8 -9 13 -9 41 0 74 -107 57
-183 -16 -73 -31 -87 -91 -87 -29 0 -58 5 -65 12 -8 8 -12 56 -12 151 l0 139
48 -7 c26 -4 49 -11 50 -16z"/>
<path d="M1950 7849 c-129 -21 -260 -41 -291 -44 l-56 -6 -6 -127 c-4 -70 -7
-180 -7 -246 l0 -119 46 7 c26 3 53 6 60 6 11 0 14 29 14 144 0 159 -5 146 68
161 l32 7 2 -74 c1 -40 2 -218 2 -395 l1 -322 -45 -6 c-25 -3 -51 -9 -56 -13
-7 -5 -8 -50 -3 -132 4 -69 8 -149 8 -178 1 -53 1 -53 23 -38 12 9 31 16 41
16 11 0 41 11 69 25 27 14 54 25 59 25 4 0 32 11 61 24 29 14 73 31 98 39 l44
15 -2 123 c-1 68 -2 130 -2 137 0 10 -13 12 -55 7 l-55 -7 0 401 0 401 60 0
60 0 0 -130 0 -130 54 0 c40 0 55 4 60 16 3 9 6 114 6 235 l0 219 -27 -1 c-16
-1 -134 -19 -263 -40z"/>
<path d="M5485 7826 c-61 -19 -91 -43 -121 -94 -15 -26 -30 -49 -34 -52 -3 -3
-14 -39 -23 -80 -14 -62 -16 -86 -7 -135 6 -33 14 -80 17 -105 6 -47 41 -117
80 -160 13 -14 23 -27 23 -31 0 -3 24 -16 53 -29 66 -31 165 -34 194 -7 11 9
24 17 30 17 13 0 86 104 108 155 25 58 27 222 5 297 -10 31 -16 59 -14 61 2 2
-5 12 -16 22 -11 10 -20 23 -20 29 0 6 -16 28 -35 49 -27 30 -45 40 -89 49
-31 7 -56 16 -56 20 0 12 -49 9 -95 -6z m122 -168 c31 -34 53 -111 53 -186 0
-76 -15 -127 -47 -161 -45 -48 -124 7 -139 97 -4 23 -11 45 -15 48 -23 14 3
155 36 198 26 34 82 36 112 4z"/>
<path d="M5870 7767 c0 -86 8 -105 49 -112 l37 -6 -1 -142 c0 -196 10 -297 36
-368 13 -33 85 -79 125 -79 39 0 94 19 114 39 13 13 15 11 18 -17 3 -29 6 -31
50 -37 26 -4 60 -11 76 -16 16 -5 50 -9 76 -9 l47 0 6 87 c6 98 3 103 -55 103
-44 0 -40 -16 -42 170 -1 63 -2 176 -4 252 l-2 136 -37 6 c-21 3 -73 8 -115
12 l-78 6 0 -81 c0 -79 1 -81 24 -81 56 0 56 1 56 -179 l0 -168 -40 -12 c-46
-14 -75 -8 -85 17 -4 9 -8 127 -10 261 -2 133 -5 244 -7 246 -2 1 -56 6 -120
10 l-118 7 0 -45z"/>
<path d="M3813 7765 c-7 -8 -13 -23 -13 -35 0 -20 -1 -20 -37 3 -29 18 -55 24
-105 26 -40 1 -68 -2 -68 -8 0 -5 -8 -12 -18 -15 -28 -9 -112 -89 -112 -107 0
-9 -12 -37 -26 -62 -18 -32 -26 -65 -29 -109 -1 -35 -6 -81 -10 -103 -9 -51
10 -152 41 -230 36 -88 46 -105 60 -105 7 0 19 -9 27 -20 18 -25 58 -40 113
-40 97 0 244 105 244 175 0 8 5 15 10 15 6 0 10 7 10 15 0 9 7 30 16 47 16 30
15 32 -7 49 -13 10 -32 19 -42 19 -10 0 -29 7 -42 16 -23 15 -25 15 -25 0 0
-9 -4 -16 -9 -16 -5 0 -13 -10 -17 -22 -3 -13 -24 -40 -45 -61 -35 -34 -43
-38 -72 -31 -34 7 -58 32 -69 74 -23 85 -29 118 -24 140 3 14 11 56 19 94 12
63 16 71 47 88 19 10 44 18 55 18 34 0 103 -57 107 -88 3 -25 6 -27 43 -24 78
6 74 -4 72 160 l-2 147 -40 2 c-25 2 -45 -3 -52 -12z"/>
<path d="M6540 7669 c0 -72 1 -76 25 -87 14 -7 36 -12 48 -12 22 0 22 -2 25
-196 l4 -195 -46 6 -46 7 0 -91 c0 -86 1 -91 23 -95 32 -6 172 -36 243 -52 33
-8 63 -14 66 -14 3 0 9 36 12 81 9 102 -4 129 -64 129 -40 0 -40 0 -40 38 1
98 21 225 38 239 44 35 64 46 95 48 17 2 37 3 42 4 6 1 10 43 10 104 l0 102
-59 -2 c-51 -1 -62 -5 -92 -34 -18 -17 -35 -44 -37 -58 -2 -14 -5 6 -6 45 l-1
71 -70 7 c-38 4 -70 11 -70 16 0 4 -23 10 -50 12 l-50 3 0 -76z"/>
<path d="M2963 7683 c-18 -2 -33 -8 -33 -13 0 -5 -8 -11 -18 -14 -26 -9 -85
-66 -98 -96 -26 -56 -34 -83 -30 -88 6 -5 58 -14 101 -16 23 -1 33 5 43 26 15
31 32 42 80 53 50 11 72 -18 79 -105 l6 -69 -39 14 c-21 8 -48 14 -59 14 -28
1 -115 -51 -148 -88 -35 -40 -46 -67 -62 -157 -11 -63 -10 -82 5 -153 10 -45
26 -93 35 -107 19 -29 71 -54 111 -54 36 0 119 47 134 75 19 36 37 38 32 4 -4
-27 -2 -29 31 -29 20 0 46 4 59 9 13 5 51 15 85 22 l62 13 6 40 c4 23 5 66 3
96 l-3 55 -37 -2 -38 -2 -2 77 c-1 42 -2 109 -3 147 -2 159 -41 299 -93 333
-24 16 -145 24 -209 15z m116 -475 c32 -20 27 -73 -12 -133 -33 -51 -51 -61
-92 -51 -45 11 -62 132 -25 179 30 38 73 40 129 5z"/>
<path d="M2680 7636 c-14 -6 -31 -16 -38 -23 -7 -7 -17 -13 -21 -13 -18 0 -76
-88 -88 -134 l-13 -51 4 92 3 92 -26 -5 c-14 -2 -66 -10 -114 -18 -48 -7 -89
-15 -91 -17 -2 -2 -7 -46 -11 -98 l-7 -94 46 5 46 6 2 -77 c1 -42 1 -141 1
-221 l0 -145 -46 -9 c-43 -9 -45 -10 -51 -52 -3 -24 -3 -79 1 -124 5 -68 9
-81 22 -77 9 3 54 17 101 32 95 30 138 41 191 50 l36 5 6 86 c3 47 3 99 0 116
-5 25 -9 29 -29 24 -13 -3 -36 -9 -51 -12 l-26 -7 6 119 c3 65 12 136 20 157
23 62 68 116 120 140 l47 22 0 117 c0 64 -3 119 -7 121 -5 3 -19 0 -33 -7z"/>
<path d="M8473 7513 c-18 -17 -34 -29 -36 -26 -2 2 -10 -3 -17 -12 -7 -8 -17
-15 -23 -15 -6 0 -18 -7 -28 -16 -14 -13 -16 -26 -12 -70 6 -57 0 -65 -37 -42
-10 7 -21 10 -23 8 -2 -3 1 -42 6 -88 10 -79 12 -83 38 -89 26 -5 28 -9 33
-77 3 -39 5 -107 4 -151 -1 -89 9 -189 22 -220 5 -11 11 -31 13 -45 6 -31 27
-90 39 -110 5 -8 14 -27 21 -42 6 -16 15 -28 19 -28 4 0 8 -7 8 -15 0 -8 14
-22 31 -31 44 -22 95 -11 113 24 16 31 20 138 6 147 -6 4 -10 37 -10 75 0 66
-1 69 -22 64 -31 -6 -65 14 -72 42 -3 12 -8 84 -11 160 l-5 136 27 -6 c16 -4
37 -10 47 -13 18 -5 19 -1 12 77 -4 46 -9 86 -11 90 -3 4 -25 13 -49 20 l-45
12 -3 136 -3 135 -32 -30z"/>
<path d="M7884 7458 c-3 -5 -9 -6 -13 -4 -25 16 -123 -125 -128 -184 -1 -14
-5 -72 -9 -130 -6 -99 -5 -110 20 -171 14 -36 26 -70 26 -76 0 -6 7 -16 15
-23 8 -7 13 -15 11 -19 -6 -9 45 -96 76 -128 75 -77 99 -97 134 -109 73 -25
148 14 185 96 10 22 23 40 29 40 7 0 10 6 7 13 -2 6 -1 22 4 33 10 28 -3 44
-64 81 l-48 30 -35 -35 c-31 -31 -38 -33 -72 -27 -20 3 -42 13 -48 21 -6 8
-16 14 -21 14 -13 0 -31 40 -53 116 l-18 61 38 -8 c21 -5 50 -13 64 -19 15 -5
43 -10 62 -10 19 0 63 -9 97 -19 111 -35 117 -35 117 -6 0 14 -4 25 -10 25 -6
0 -10 28 -10 63 -1 39 -6 69 -15 81 -8 11 -15 29 -15 40 0 12 -21 53 -45 91
-25 39 -48 78 -52 88 -13 39 -212 103 -229 75z m122 -168 c38 -24 69 -73 76
-118 l4 -32 -40 6 c-70 10 -156 36 -157 48 -4 44 5 81 24 97 29 24 52 24 93
-1z"/>
<path d="M6454 5741 c-35 -7 -15 16 -522 -590 -177 -210 -322 -391 -322 -400
0 -27 -23 -10 518 -398 156 -112 291 -203 300 -203 9 1 28 7 42 15 20 12 90
15 360 15 184 1 361 5 392 9 l58 7 155 160 154 159 1 52 c0 41 -4 54 -18 62
-11 6 -226 177 -478 381 l-459 370 -5 171 c-5 154 -7 172 -24 185 -20 14 -94
17 -152 5z m303 -631 c70 -42 83 -142 27 -201 -84 -88 -224 -31 -224 91 0 52
18 83 64 111 40 24 92 24 133 -1z"/>
<path d="M3188 5047 c-82 -63 -108 -148 -69 -232 10 -22 120 -167 245 -323
145 -181 226 -290 226 -305 0 -12 -7 -467 -15 -1010 -16 -1104 -21 -1019 58
-1129 57 -81 133 -146 232 -199 l78 -42 152 -9 c84 -5 519 -7 967 -6 l814 3
66 34 c126 64 211 158 269 301 l28 69 1 795 1 794 -23 25 c-13 14 -209 163
-437 332 l-414 306 -707 -1 -708 -1 -257 295 c-284 327 -295 336 -402 336 -54
0 -67 -4 -105 -33z m2230 -1593 c97 -48 93 -39 240 -624 72 -289 134 -537 137
-552 l5 -28 -945 0 -945 0 0 38 c0 34 181 1048 196 1097 9 28 34 55 64 68 30
14 307 22 816 25 l380 2 52 -26z"/>
</g>
</svg>
